<mxfile host="www.draw.io" modified="2019-12-15T09:03:50.915Z" agent="Mozilla/5.0 (Windows NT 10.0; Win64; x64) AppleWebKit/537.36 (KHTML, like Gecko) Chrome/78.0.3904.108 Safari/537.36" etag="3UkH1xubK7p4-zqKYeuO" version="12.4.2" type="github" pages="1">
  <diagram name="Page-1" id="e7e014a7-5840-1c2e-5031-d8a46d1fe8dd">
    <mxGraphModel dx="1422" dy="794" grid="1" gridSize="10" guides="1" tooltips="1" connect="1" arrows="1" fold="1" page="1" pageScale="1" pageWidth="1169" pageHeight="826" background="#ffffff" math="0" shadow="0">
      <root>
        <mxCell id="0"/>
        <mxCell id="1" parent="0"/>
        <mxCell id="Lym0A1ep3J3aAwB5jnxL-50" style="edgeStyle=orthogonalEdgeStyle;rounded=0;orthogonalLoop=1;jettySize=auto;html=1;entryX=0;entryY=0.5;entryDx=0;entryDy=0;" edge="1" parent="1" source="Lym0A1ep3J3aAwB5jnxL-41" target="Lym0A1ep3J3aAwB5jnxL-49">
          <mxGeometry relative="1" as="geometry"/>
        </mxCell>
        <mxCell id="Lym0A1ep3J3aAwB5jnxL-51" style="edgeStyle=orthogonalEdgeStyle;rounded=0;orthogonalLoop=1;jettySize=auto;html=1;entryX=0;entryY=0.5;entryDx=0;entryDy=0;" edge="1" parent="1" source="Lym0A1ep3J3aAwB5jnxL-41" target="Lym0A1ep3J3aAwB5jnxL-48">
          <mxGeometry relative="1" as="geometry"/>
        </mxCell>
        <mxCell id="Lym0A1ep3J3aAwB5jnxL-52" style="edgeStyle=orthogonalEdgeStyle;rounded=0;orthogonalLoop=1;jettySize=auto;html=1;entryX=0;entryY=0.5;entryDx=0;entryDy=0;" edge="1" parent="1" source="Lym0A1ep3J3aAwB5jnxL-41" target="Lym0A1ep3J3aAwB5jnxL-47">
          <mxGeometry relative="1" as="geometry"/>
        </mxCell>
        <mxCell id="Lym0A1ep3J3aAwB5jnxL-41" value="Actor" style="shape=umlActor;verticalLabelPosition=bottom;labelBackgroundColor=#ffffff;verticalAlign=top;html=1;outlineConnect=0;" vertex="1" parent="1">
          <mxGeometry x="180" y="361" width="30" height="60" as="geometry"/>
        </mxCell>
        <mxCell id="Lym0A1ep3J3aAwB5jnxL-47" value="pasek kondycji" style="ellipse;whiteSpace=wrap;html=1;" vertex="1" parent="1">
          <mxGeometry x="350" y="80" width="120" height="80" as="geometry"/>
        </mxCell>
        <mxCell id="Lym0A1ep3J3aAwB5jnxL-48" value="pasek zdrowia" style="ellipse;whiteSpace=wrap;html=1;" vertex="1" parent="1">
          <mxGeometry x="350" y="210" width="120" height="80" as="geometry"/>
        </mxCell>
        <mxCell id="Lym0A1ep3J3aAwB5jnxL-49" value="poruszanie siÄ™ po planszy" style="ellipse;whiteSpace=wrap;html=1;" vertex="1" parent="1">
          <mxGeometry x="350" y="351" width="120" height="80" as="geometry"/>
        </mxCell>
      </root>
    </mxGraphModel>
  </diagram>
</mxfile>
